<svg width="45" height="45" viewBox="0 0 45 45" fill="none" xmlns="http://www.w3.org/2000/svg">
<path d="M42.6042 20.1044H41.0525C40.6169 16.7423 39.2966 13.6524 37.3093 11.0935L38.4119 9.99093C39.3511 9.05172 39.3511 7.52722 38.4119 6.58802C37.4727 5.64882 35.9482 5.64882 35.009 6.58802L33.9064 7.69056C31.3611 5.71688 28.2712 4.38294 24.9092 3.94737V2.39564C24.9092 1.07532 23.8339 0 22.4999 0C21.166 0 20.1043 1.07532 20.1043 2.39564V3.94737C16.7422 4.38294 13.6524 5.70327 11.0934 7.69056L9.9909 6.58802C9.0517 5.64882 7.5272 5.64882 6.588 6.58802C5.6488 7.52722 5.6488 9.05172 6.588 9.99093L7.69054 11.0935C5.71686 13.6524 4.38293 16.7287 3.94736 20.1044H2.39564C1.07531 20.1044 0 21.1797 0 22.5C0 23.8203 1.07531 24.8956 2.39564 24.8956H3.94736C4.38293 28.2577 5.70325 31.3475 7.69054 33.9065L6.588 35.0091C5.6488 35.9483 5.6488 37.4728 6.588 38.412C7.5272 39.3512 9.0517 39.3512 9.9909 38.412L11.0934 37.3094C13.6524 39.2831 16.7422 40.6171 20.1043 41.0526V42.6044C20.1043 43.9247 21.1796 45 22.4999 45C23.8203 45 24.9092 43.9383 24.9092 42.6044V41.0526C28.2712 40.6171 31.3611 39.2967 33.92 37.3094L35.0226 38.412C35.9618 39.3512 37.4863 39.3512 38.4255 38.412C39.3647 37.4728 39.3647 35.9483 38.4255 35.0091L37.3229 33.9065C39.2966 31.3475 40.6306 28.2577 41.0661 24.8956H42.6042C43.9246 24.8956 44.9999 23.8203 44.9999 22.5C45.0135 21.1797 43.9382 20.1044 42.6042 20.1044ZM22.4999 36.2341C14.9183 36.2341 8.77947 30.0953 8.77947 22.5136C8.77947 14.9319 14.9183 8.7931 22.4999 8.7931C30.0816 8.7931 36.2204 14.9319 36.2204 22.5136C36.234 30.0817 30.0816 36.2341 22.4999 36.2341Z" fill="white"/>
<path d="M22.4999 28.843C26.0031 28.843 28.8429 26.0031 28.8429 22.5C28.8429 18.9968 26.0031 16.157 22.4999 16.157C18.9968 16.157 16.1569 18.9968 16.1569 22.5C16.1569 26.0031 18.9968 28.843 22.4999 28.843Z" fill="white"/>
</svg>
